# xmcd CD database file
#
# Track frame offsets:
#	150
#	1484
#	18341
#	39625
#	56259
#	73829
#	96164
#	113287
#	136102
#	147804
#	165646
#	182721
#	202342
#	221909
#	239212
#	259899
#
# Disc length: 3482 seconds
#
# Revision: 2
# Processed by: cddbd v1.5.1PL2 Copyright (c) Steve Scherf et al.
# Submitted via: freeDBTagger 0.9.2.0
#
DISCID=eb0d9810
DTITLE=Various Artist - SOUND WANING PROJECT "project #5"
DYEAR=2006
DGENRE=blues
TTITLE0=soundwarning(jingle)
TTITLE1=リトルターン
TTITLE2=キセキ
TTITLE3=ありんこ
TTITLE4=チューリップ
TTITLE5=絆
TTITLE6=自分色
TTITLE7=あしあと
TTITLE8=Beside You
TTITLE9=Mental Damage
TTITLE10=Distress
TTITLE11=告白大作戦！
TTITLE12=七色の蝶
TTITLE13=ビー玉
TTITLE14=橋桁
TTITLE15=soundwarning(jingle)
EXTD=
EXTT0=
EXTT1=
EXTT2=
EXTT3=
EXTT4=
EXTT5=
EXTT6=
EXTT7=
EXTT8=
EXTT9=
EXTT10=
EXTT11=
EXTT12=
EXTT13=
EXTT14=
EXTT15=
PLAYORDER=
